# Blender 4.5.3 LTS
# www.blender.org
mtllib long_table.mtl
o Cube.001
v -8.989302 0.009484 0.990000
v -8.979301 -0.000516 0.990000
v -8.979301 0.009484 1.000000
v -8.989302 1.531223 0.990000
v -8.979301 1.531223 1.000000
v -8.979301 1.541223 0.990000
v -8.989302 0.009484 -0.990000
v -8.979301 0.009484 -1.000000
v -8.979301 -0.000516 -0.990000
v -8.979301 1.531223 -1.000000
v -8.989302 1.531223 -0.990000
v -8.979301 1.541223 -0.990000
v -4.004488 0.009484 0.990000
v -4.014488 0.009484 1.000000
v -4.014488 -0.000516 0.990000
v -4.014488 1.531223 1.000000
v -4.004488 1.531223 0.990000
v -4.014488 1.541223 0.990000
v -4.014488 0.009484 -1.000000
v -4.004488 0.009484 -0.990000
v -4.014488 -0.000516 -0.990000
v -4.014488 1.531223 -1.000000
v -4.014488 1.541223 -0.990000
v -4.004488 1.531223 -0.990000
v -4.276796 -0.000516 -0.990000
v -4.286797 0.009484 -0.990000
v -4.276796 0.009484 -1.000000
v -8.716993 -0.000516 -0.990000
v -8.716993 0.009484 -1.000000
v -8.706993 0.009484 -0.990000
v -8.716993 0.009484 1.000000
v -8.716993 -0.000516 0.990000
v -8.706993 0.009484 0.990000
v -4.276796 0.009484 1.000000
v -4.286797 0.009484 0.990000
v -4.276796 -0.000516 0.990000
v -8.989302 0.009484 -0.766382
v -8.979301 -0.000516 -0.766382
v -8.979301 0.009484 -0.756382
v -8.989302 0.009484 0.766382
v -8.979301 0.009484 0.756382
v -8.979301 -0.000516 0.766382
v -4.004488 0.009484 0.766382
v -4.014488 -0.000516 0.766382
v -4.014488 0.009484 0.756382
v -4.004488 0.009484 -0.766382
v -4.014488 0.009484 -0.756382
v -4.014488 -0.000516 -0.766382
v -8.706993 0.009484 -0.766382
v -8.716993 0.009484 -0.756382
v -8.716993 -0.000516 -0.766382
v -8.706993 0.009484 0.766382
v -8.716993 -0.000516 0.766382
v -8.716993 0.009484 0.756382
v -4.286797 0.009484 -0.766382
v -4.276796 -0.000516 -0.766382
v -4.276796 0.009484 -0.756382
v -4.286797 0.009484 0.766382
v -4.276796 0.009484 0.756382
v -4.276796 -0.000516 0.766382
v -8.989302 1.293963 0.990000
v -8.979301 1.293963 1.000000
v -8.989302 1.293963 -0.990000
v -8.979301 1.293963 -1.000000
v -4.014488 1.293963 -1.000000
v -4.004488 1.293963 -0.990000
v -4.004488 1.293963 0.990000
v -4.014488 1.293963 1.000000
v -4.286797 1.283970 0.990000
v -4.276796 1.303963 1.000000
v -4.296796 1.293970 0.990000
v -8.706993 1.283970 0.990000
v -8.696993 1.293970 0.990000
v -8.716993 1.303963 1.000000
v -8.706993 1.283970 -0.990000
v -8.716993 1.303963 -1.000000
v -8.696993 1.293970 -0.990000
v -4.286797 1.283970 -0.990000
v -4.296796 1.293970 -0.990000
v -4.276796 1.303963 -1.000000
v -4.014488 1.283969 -0.756382
v -4.004488 1.303963 -0.766382
v -4.014488 1.293969 -0.746382
v -4.014488 1.283969 0.756382
v -4.014488 1.293969 0.746382
v -4.004488 1.303963 0.766382
v -8.979301 1.283969 0.756382
v -8.989302 1.303963 0.766382
v -8.979301 1.293969 0.746382
v -8.979301 1.283969 -0.756382
v -8.979301 1.293969 -0.746382
v -8.989302 1.303963 -0.766382
v -8.716993 1.284141 -0.756382
v -8.706993 1.284140 -0.766382
v -8.696993 1.294162 -0.746382
v -8.706993 1.284140 0.766382
v -8.716993 1.284141 0.756382
v -8.696993 1.294162 0.746382
v -4.286797 1.284140 -0.766382
v -4.276796 1.284141 -0.756382
v -4.296796 1.294162 -0.746382
v -4.286797 1.284140 0.766382
v -4.296796 1.294162 0.746382
v -4.276796 1.284141 0.756382
vn -0.5774 -0.5774 0.5773
vn -0.5774 0.5774 0.5773
vn -0.5774 -0.5774 -0.5773
vn -0.5774 0.5774 -0.5773
vn 0.5774 -0.5774 0.5773
vn 0.5774 0.5774 0.5773
vn 0.5774 -0.5774 -0.5773
vn 0.5774 0.5774 -0.5773
vn -0.5773 -0.5773 -0.5774
vn -0.5773 -0.5773 0.5774
vn -0.3016 -0.3016 0.9045
vn 0.3016 -0.3016 0.9045
vn 0.3016 -0.3016 -0.9045
vn -0.3016 -0.3016 -0.9045
vn 0.9045 -0.3016 0.3016
vn 0.9045 -0.3016 -0.3016
vn -0.9045 -0.3016 -0.3016
vn -0.9045 -0.3016 0.3016
vn 0.3020 -0.9042 0.3021
vn 0.3020 -0.9042 -0.3021
vn -0.3020 -0.9042 0.3021
vn -0.3020 -0.9042 -0.3021
vn -0.7071 -0.7071 -0.0000
vn -0.7071 -0.0000 0.7071
vn -0.7071 -0.0000 -0.7071
vn -0.0000 -0.7071 -0.7071
vn 0.7071 -0.0000 -0.7071
vn 0.7071 -0.7071 -0.0000
vn 0.7071 -0.0000 0.7071
vn -0.0000 -0.7071 0.7071
vn -0.0000 0.7071 -0.7071
vn -0.0000 0.7071 0.7071
vn -0.7071 0.7071 -0.0000
vn 0.7071 0.7071 -0.0000
vn -0.7069 -0.7073 -0.0000
vn 0.7069 -0.7073 -0.0000
vn -0.0000 -0.7074 -0.7068
vn -0.0000 -0.7074 0.7068
vn -0.0005 -0.7070 -0.7072
vn -0.0005 -0.7070 0.7072
vn -0.7072 -0.7070 0.0005
vn 0.7072 -0.7070 0.0005
vn 0.0005 -0.7070 0.7072
vn 0.0005 -0.7070 -0.7072
vn 0.7072 -0.7070 -0.0005
vn -0.7072 -0.7070 -0.0005
vn -1.0000 -0.0000 -0.0000
vn -0.0000 -1.0000 -0.0000
vn -0.0000 -0.0000 1.0000
vn -0.0000 1.0000 -0.0000
vn -0.0000 -0.0000 -1.0000
vn 1.0000 -0.0000 -0.0000
vn -0.0000 -1.0000 -0.0008
vn -0.0000 -1.0000 0.0008
vn -0.0007 -1.0000 -0.0000
vn 0.0007 -1.0000 -0.0000
vt 0.376622 0.003421
vt 0.375000 0.003421
vt 0.376622 0.000000
vt 0.623378 0.001576
vt 0.623378 0.000000
vt 0.625000 0.001250
vt 0.376622 0.246579
vt 0.376622 0.252951
vt 0.375000 0.246579
vt 0.623378 0.250945
vt 0.623378 0.248424
vt 0.625000 0.250001
vt 0.376622 0.746580
vt 0.376574 0.752921
vt 0.372052 0.746588
vt 0.623379 0.750945
vt 0.623378 0.748424
vt 0.625498 0.748762
vt 0.376574 0.497079
vt 0.376622 0.503420
vt 0.372052 0.503412
vt 0.623379 0.499055
vt 0.625498 0.501238
vt 0.623378 0.501576
vt 0.294618 0.503421
vt 0.292681 0.501708
vt 0.294619 0.500000
vt 0.205381 0.503421
vt 0.205381 0.500000
vt 0.209991 0.501243
vt 0.376622 0.919618
vt 0.371891 0.913613
vt 0.368888 0.904982
vt 0.376622 0.830382
vt 0.372130 0.825069
vt 0.375000 0.830382
vt 0.125000 0.579913
vt 0.127952 0.579913
vt 0.127952 0.583333
vt 0.376622 0.079913
vt 0.369843 0.102595
vt 0.371853 0.092751
vt 0.376621 0.670087
vt 0.372048 0.670087
vt 0.372619 0.665270
vt 0.376622 0.579913
vt 0.372619 0.582111
vt 0.372048 0.579913
vt 0.207975 0.576299
vt 0.213420 0.565478
vt 0.205393 0.579898
vt 0.214460 0.673205
vt 0.206367 0.669064
vt 0.213503 0.642256
vt 0.290665 0.576476
vt 0.294618 0.579913
vt 0.293417 0.580050
vt 0.293884 0.669787
vt 0.293416 0.662914
vt 0.294619 0.670092
vt 0.560349 0.800554
vt 0.586527 0.827560
vt 0.560896 0.799260
vt 0.560170 0.880466
vt 0.560897 0.878906
vt 0.586527 0.922440
vt 0.560677 0.322518
vt 0.586527 0.327560
vt 0.560900 0.319786
vt 0.561269 0.402189
vt 0.560896 0.399430
vt 0.586527 0.422439
vt 0.563617 0.563893
vt 0.586527 0.578068
vt 0.564187 0.563070
vt 0.563617 0.644450
vt 0.564187 0.642653
vt 0.586527 0.671931
vt 0.563443 0.081779
vt 0.586527 0.078068
vt 0.564187 0.080781
vt 0.563442 0.161986
vt 0.564187 0.160364
vt 0.586527 0.171931
vt 0.021452 0.009188
vt 0.024369 0.017298
vt -0.004292 -0.002133
vt 0.024725 0.041353
vt 0.021452 0.006706
vt -0.004292 -0.005172
vt 0.025012 0.020541
vt 0.021921 0.023948
vt -0.004292 -0.003370
vt 0.025191 0.037932
vt -0.004292 -0.005802
vt 0.021921 0.027369
vt 0.584906 0.000000
vt 0.584906 0.003421
vt 0.584906 0.252952
vt 0.584906 0.246579
vt 0.127952 0.503421
vt 0.127952 0.500000
vt 0.584906 0.503421
vt 0.584906 0.497048
vt 0.584906 0.752952
vt 0.584906 0.746579
vt 0.294618 0.746579
vt 0.294618 0.750000
vt 0.375000 0.997048
vt 0.376622 0.997048
vt 0.625000 0.999498
vt 0.623379 0.999055
vt 0.291667 0.746579
vt 0.376622 0.333333
vt 0.376622 0.330381
vt 0.376622 0.419619
vt 0.376622 0.416667
vt 0.125000 0.503421
vt 0.376621 0.170087
vt 0.369842 0.180204
vt 0.127952 0.670087
vt 0.205381 0.746579
vt 0.127952 0.746579
vt 0.584906 0.997048
vt 0.874499 0.501250
vt 0.874499 0.748750
s 0
f 1/1/1 2/2/1 3/3/1
f 4/4/2 5/5/2 6/6/2
f 7/7/3 8/8/3 9/9/3
f 10/10/4 11/11/4 12/12/4
f 13/13/5 14/14/5 15/15/5
f 16/16/6 17/17/6 18/18/6
f 19/19/7 20/20/7 21/21/7
f 22/22/8 23/23/8 24/24/8
f 25/25/9 26/26/9 27/27/9
f 28/28/7 29/29/7 30/30/7
f 31/31/5 32/32/5 33/33/5
f 34/34/10 35/35/10 36/36/10
f 37/37/1 38/38/1 39/39/1
f 40/40/3 41/41/3 42/42/3
f 43/43/7 44/44/7 45/45/7
f 46/46/5 47/47/5 48/48/5
f 49/49/5 50/50/5 51/51/5
f 52/52/7 53/53/7 54/54/7
f 55/55/10 56/56/10 57/57/10
f 58/58/9 59/59/9 60/60/9
f 69/61/11 70/62/11 71/63/11
f 72/64/12 73/65/12 74/66/12
f 75/67/13 76/68/13 77/69/13
f 78/70/14 79/71/14 80/72/14
f 81/73/15 82/74/15 83/75/15
f 84/76/16 85/77/16 86/78/16
f 87/79/17 88/80/17 89/81/17
f 90/82/18 91/83/18 92/84/18
f 93/85/19 94/86/19 95/87/19
f 96/88/20 97/89/20 98/90/20
f 99/91/21 100/92/21 101/93/21
f 102/94/22 103/95/22 104/96/22
f 42/42/23 2/2/23 1/1/23 40/40/23
f 62/97/24 5/5/24 4/4/24 61/98/24
f 64/99/25 8/8/25 7/7/25 63/100/25
f 28/28/26 9/101/26 8/102/26 29/29/26
f 66/103/27 20/20/27 19/19/27 65/104/27
f 48/48/28 21/21/28 20/20/28 46/46/28
f 68/105/29 14/14/29 13/13/29 67/106/29
f 36/107/30 15/15/30 14/14/30 34/108/30
f 21/21/26 25/25/26 27/27/26 19/19/26
f 12/12/31 23/23/31 22/22/31 10/10/31
f 2/109/30 32/32/30 31/31/30 3/110/30
f 18/18/32 6/111/32 5/112/32 16/16/32
f 52/52/28 33/33/28 32/32/28 53/53/28
f 60/60/23 36/107/23 35/113/23 58/58/23
f 69/61/24 35/35/24 34/34/24 70/62/24
f 74/66/29 31/31/29 33/33/29 72/64/29
f 75/67/27 30/114/27 29/115/27 76/68/27
f 80/72/25 27/116/25 26/117/25 78/70/25
f 9/101/23 38/38/23 37/37/23 7/118/23
f 6/6/33 12/12/33 11/11/33 4/4/33
f 15/15/28 44/44/28 43/43/28 13/13/28
f 23/23/34 18/18/34 17/17/34 24/24/34
f 30/30/28 49/49/28 51/51/28 28/28/28
f 25/25/23 56/56/23 55/55/23 26/26/23
f 50/50/30 39/39/30 38/38/30 51/51/30
f 53/53/26 42/42/26 41/41/26 54/54/26
f 47/47/30 57/57/30 56/56/30 48/48/30
f 44/44/26 60/60/26 59/59/26 45/45/26
f 81/73/29 47/47/29 46/46/29 82/74/29
f 86/78/27 43/43/27 45/45/27 84/76/27
f 87/79/25 41/41/25 40/40/25 88/80/25
f 92/84/24 37/119/24 39/120/24 90/82/24
f 3/3/24 62/97/24 61/98/24 1/1/24
f 10/10/25 64/99/25 63/100/25 11/11/25
f 24/24/27 66/103/27 65/104/27 22/22/27
f 16/16/29 68/105/29 67/106/29 17/17/29
f 88/80/35 92/84/35 91/83/35 89/81/35
f 82/74/36 86/78/36 85/77/36 83/75/36
f 76/68/37 80/72/37 79/71/37 77/69/37
f 70/62/38 74/66/38 73/65/38 71/63/38
f 49/49/29 94/86/29 93/85/29 50/50/29
f 54/54/27 97/89/27 96/88/27 52/52/27
f 57/57/24 100/92/24 99/91/24 55/55/24
f 58/58/25 102/94/25 104/96/25 59/59/25
f 84/76/39 104/96/39 103/95/39 85/77/39
f 100/92/40 81/73/40 83/75/40 101/93/40
f 78/70/41 99/91/41 101/93/41 79/71/41
f 94/86/42 75/67/42 77/69/42 95/87/42
f 90/82/43 93/85/43 95/87/43 91/83/43
f 97/89/44 87/79/44 89/81/44 98/90/44
f 72/64/45 96/88/45 98/90/45 73/65/45
f 71/63/46 103/95/46 102/94/46 69/61/46
f 1/1/47 61/98/47 88/80/47 40/40/47
f 42/121/48 53/53/48 32/122/48 2/123/48
f 31/31/49 74/66/49 62/124/49 3/110/49
f 4/4/47 11/11/47 63/100/47 92/84/47 88/80/47 61/98/47
f 16/16/49 5/112/49 62/124/49 74/66/49 70/62/49 68/105/49
f 12/125/50 6/126/50 18/18/50 23/23/50
f 37/119/47 92/84/47 63/100/47 7/7/47
f 8/8/51 64/99/51 76/68/51 29/115/51
f 9/101/48 28/28/48 51/51/48 38/38/48
f 10/10/51 22/22/51 65/104/51 80/72/51 76/68/51 64/99/51
f 43/43/52 86/78/52 67/106/52 13/13/52
f 14/14/49 68/105/49 70/62/49 34/34/49
f 60/60/48 44/44/48 15/15/48 36/107/48
f 24/24/52 17/17/52 67/106/52 86/78/52 82/74/52 66/103/52
f 27/116/51 80/72/51 65/104/51 19/19/51
f 20/20/52 66/103/52 82/74/52 46/46/52
f 25/25/48 21/21/48 48/48/48 56/56/48
f 78/70/47 26/26/47 55/55/47 99/91/47
f 75/67/52 94/86/52 49/49/52 30/30/52
f 52/52/52 96/88/52 72/64/52 33/33/52
f 58/58/47 35/35/47 69/61/47 102/94/47
f 50/50/49 93/85/49 90/82/49 39/120/49
f 41/41/51 87/79/51 97/89/51 54/54/51
f 59/59/51 104/96/51 84/76/51 45/45/51
f 47/47/49 81/73/49 100/92/49 57/57/49
f 71/63/53 73/65/53 98/90/53 103/95/53
f 79/71/54 101/93/54 95/87/54 77/69/54
f 85/77/55 103/95/55 101/93/55 83/75/55
f 91/83/56 95/87/56 98/90/56 89/81/56
f 101/93/48 103/95/48 98/90/48 95/87/48
