# Blender 4.5.3 LTS
# www.blender.org
mtllib square_cabinet.mtl
o Cube.002
v -3.544487 2.670695 -0.088381
v -3.544487 3.056189 -0.088381
v -3.544487 3.441684 -0.088381
v -1.544487 3.441684 -0.088381
v -1.544487 3.056189 -0.088381
v -1.544487 2.670695 -0.088381
v -3.480847 2.348840 -0.088381
v -3.480847 3.763538 -0.088381
v -3.492526 2.337162 -0.923515
v -3.492526 3.775216 -0.923515
v -1.608127 2.348840 -0.088381
v -1.608127 3.763538 -0.088381
v -1.596449 2.337162 -0.923515
v -1.596449 3.775216 -0.923515
v -3.463989 2.710944 -0.088381
v -3.463989 3.096438 -0.088381
v -3.463989 3.401434 -0.088381
v -3.484487 3.411684 -0.915476
v -3.484487 3.086189 -0.915476
v -3.484487 2.700695 -0.915476
v -1.604487 3.411684 -0.915476
v -1.604487 3.086189 -0.915476
v -1.604487 2.700695 -0.915476
v -1.624985 3.401434 -0.088381
v -1.624985 3.096438 -0.088381
v -1.624985 2.710944 -0.088381
v -3.535871 2.285201 -0.096997
v -3.544487 2.293817 -0.088381
v -3.535871 3.827178 -0.096997
v -3.544487 3.818562 -0.088381
v -3.535871 2.285201 -0.966860
v -3.544487 2.293817 -0.966860
v -3.535871 2.293817 -0.975476
v -3.544487 3.818562 -0.966860
v -3.535871 3.827178 -0.966860
v -3.535871 3.818562 -0.975476
v -1.553103 2.285201 -0.096997
v -1.544487 2.293817 -0.088381
v -1.553103 3.827178 -0.096997
v -1.544487 3.818562 -0.088381
v -1.553103 2.285201 -0.966860
v -1.553103 2.293817 -0.975476
v -1.544487 2.293817 -0.966860
v -1.553103 3.818562 -0.975476
v -1.553103 3.827178 -0.966860
v -1.544487 3.818562 -0.966860
v -3.535871 3.441684 -0.975476
v -3.544487 3.441684 -0.966860
v -3.535871 3.056189 -0.975476
v -3.544487 3.056189 -0.966860
v -3.544487 2.670695 -0.966860
v -3.535871 2.670695 -0.975476
v -1.544487 3.441684 -0.966860
v -1.553103 3.441684 -0.975476
v -1.544487 3.056189 -0.966860
v -1.553103 3.056189 -0.975476
v -1.553103 2.670695 -0.975476
v -1.544487 2.670695 -0.966860
vn 0.9992 0.0341 -0.0189
vn -0.0000 0.0221 0.9998
vn -0.9992 0.0341 -0.0189
vn -0.0000 0.9999 -0.0140
vn -0.0000 -0.9999 -0.0140
vn -0.9992 -0.0341 -0.0189
vn -0.9997 -0.0000 -0.0248
vn -0.0000 -0.0221 0.9998
vn -0.0000 -0.0000 1.0000
vn 0.9992 -0.0341 -0.0189
vn 0.9997 -0.0000 -0.0248
vn -0.0000 0.9999 -0.0124
vn -0.0000 -0.9999 -0.0124
vn -0.5774 -0.5774 -0.5774
vn -0.5774 0.5774 -0.5774
vn 0.5774 -0.5774 -0.5774
vn 0.5774 0.5774 -0.5774
vn -0.7071 -0.7071 -0.0000
vn -0.7071 0.7071 -0.0000
vn -0.7071 -0.0000 -0.7071
vn -0.0000 -0.7071 -0.7071
vn -0.0000 0.7071 -0.7071
vn 0.7071 -0.0000 -0.7071
vn 0.7071 -0.7071 -0.0000
vn 0.7071 0.7071 -0.0000
vn -0.0000 -0.7071 0.7071
vn -0.0000 0.7071 0.7071
vn -1.0000 -0.0000 -0.0000
vn -0.0000 -1.0000 -0.0000
vn -0.0000 1.0000 -0.0000
vn -0.0000 -0.0000 -1.0000
vn 1.0000 -0.0000 -0.0000
vt 0.562500 0.000000
vt 0.562500 0.250000
vt 0.625000 0.250000
vt 0.625000 0.000000
vt 0.562500 0.500000
vt 0.625000 0.500000
vt 0.562500 0.750000
vt 0.625000 0.750000
vt 0.125000 0.500000
vt 0.125000 0.750000
vt 0.375000 0.750000
vt 0.375000 0.500000
vt 0.875000 0.750000
vt 0.875000 0.500000
vt 0.437500 0.750000
vt 0.437500 0.500000
vt 0.500000 0.750000
vt 0.500000 0.500000
vt 0.375000 0.250000
vt 0.437500 0.250000
vt 0.500000 0.250000
vt 0.375000 0.000000
vt 0.437500 0.000000
vt 0.500000 0.000000
vt 0.000000 0.000000
vt 0.126077 0.502428
vt 0.125000 0.502428
vt 0.126077 0.500000
vt 0.875000 0.502428
vt 0.873923 0.502428
vt 0.873923 0.500000
vt 0.373923 0.502428
vt 0.376320 0.498957
vt 0.376397 0.502428
vt 0.623680 0.498957
vt 0.626077 0.502428
vt 0.623603 0.502428
vt 0.126077 0.747572
vt 0.123986 0.750000
vt 0.873923 0.747572
vt 0.876014 0.750000
vt 0.437500 0.251077
vt 0.376397 0.251077
vt 0.376397 0.247572
vt 0.437500 0.247572
vt 0.437500 0.502428
vt 0.437500 0.498923
vt 0.373923 0.747572
vt 0.376318 0.750000
vt 0.626077 0.747572
vt 0.623682 0.750000
vt 0.623603 0.251077
vt 0.562500 0.251077
vt 0.562500 0.247572
vt 0.623603 0.247572
vt 0.500000 0.251077
vt 0.500000 0.247572
vt 0.562500 0.502428
vt 0.562500 0.498923
vt 0.500000 0.502428
vt 0.500000 0.498923
vt 0.376397 0.000000
vt 0.623603 0.000000
s 0
f 17/1/1 18/2/1 10/3/1 8/4/1
f 18/2/2 21/5/2 14/6/2 10/3/2
f 21/5/3 24/7/3 12/8/3 14/6/3
f 9/9/4 7/10/4 11/11/4 13/12/4
f 14/6/5 12/8/5 8/13/5 10/14/5
f 13/12/6 11/11/6 26/15/6 23/16/6
f 23/16/7 26/15/7 25/17/7 22/18/7
f 22/18/7 25/17/7 24/7/7 21/5/7
f 9/19/8 13/12/8 23/16/8 20/20/8
f 20/20/9 23/16/9 22/18/9 19/21/9
f 19/21/9 22/18/9 21/5/9 18/2/9
f 7/22/10 9/19/10 20/20/10 15/23/10
f 15/23/11 20/20/11 19/21/11 16/24/11
f 16/24/11 19/21/11 18/2/11 17/1/11
f 20/25/12 15/25/12 26/25/12 23/25/12
f 19/25/12 16/25/12 25/25/12 22/25/12
f 21/25/13 24/25/13 17/25/13 18/25/13
f 2/24/9 1/23/9 15/23/9 16/24/9
f 3/1/9 2/24/9 16/24/9 17/1/9
f 5/17/9 4/7/9 24/7/9 25/17/9
f 6/15/9 5/17/9 25/17/9 26/15/9
f 1/25/9 6/25/9 26/25/9 15/25/9
f 2/25/9 5/25/9 25/25/9 16/25/9
f 4/25/9 3/25/9 17/25/9 24/25/9
f 31/26/14 32/27/14 33/28/14
f 34/29/15 35/30/15 36/31/15
f 41/32/16 42/33/16 43/34/16
f 44/35/17 45/36/17 46/37/17
f 31/26/18 27/38/18 28/39/18 32/27/18
f 29/40/19 35/30/19 34/29/19 30/41/19
f 52/42/20 33/43/20 32/44/20 51/45/20
f 41/32/21 31/26/21 33/28/21 42/33/21
f 35/30/22 45/36/22 44/35/22 36/31/22
f 58/46/23 43/34/23 42/33/23 57/47/23
f 37/48/24 41/32/24 43/34/24 38/49/24
f 45/36/25 39/50/25 40/51/25 46/37/25
f 27/38/26 37/48/26 38/49/26 28/39/26
f 39/50/27 29/40/27 30/41/27 40/51/27
f 36/52/20 47/53/20 48/54/20 34/55/20
f 47/53/20 49/56/20 50/57/20 48/54/20
f 49/56/20 52/42/20 51/45/20 50/57/20
f 46/37/23 53/58/23 54/59/23 44/35/23
f 53/58/23 55/60/23 56/61/23 54/59/23
f 55/60/23 58/46/23 57/47/23 56/61/23
f 28/62/28 1/23/28 51/45/28 32/44/28
f 1/23/9 28/62/9 7/22/9 15/23/9
f 31/26/29 41/32/29 37/48/29 27/38/29
f 28/39/9 38/49/9 11/11/9 7/10/9
f 30/63/9 3/1/9 17/1/9 8/4/9
f 3/1/28 30/63/28 34/55/28 48/54/28
f 45/36/30 35/30/30 29/40/30 39/50/30
f 40/51/9 30/41/9 8/13/9 12/8/9
f 33/43/31 52/42/31 57/47/31 42/33/31
f 47/53/31 36/52/31 44/35/31 54/59/31
f 43/34/32 58/46/32 6/15/32 38/49/32
f 38/49/9 6/15/9 26/15/9 11/11/9
f 53/58/32 46/37/32 40/51/32 4/7/32
f 4/7/9 40/51/9 12/8/9 24/7/9
f 2/24/28 3/1/28 48/54/28 50/57/28
f 49/56/31 47/53/31 54/59/31 56/61/31
f 53/25/30 54/25/30 47/25/30 48/25/30 3/25/30 4/25/30
f 1/23/28 2/24/28 50/57/28 51/45/28
f 50/25/29 49/25/29 56/25/29 55/25/29 5/25/29 2/25/29
f 52/42/31 49/56/31 56/61/31 57/47/31
f 51/25/29 52/25/29 57/25/29 58/25/29 6/25/29 1/25/29
f 55/60/32 53/58/32 4/7/32 5/17/32
f 58/46/32 55/60/32 5/17/32 6/15/32
